<?xml version="1.0" standalone="no"?>
<!DOCTYPE svg PUBLIC "-//W3C//DTD SVG 20010904//EN"
 "http://www.w3.org/TR/2001/REC-SVG-20010904/DTD/svg10.dtd">
<svg version="1.0" xmlns="http://www.w3.org/2000/svg"
 width="150.000000pt" height="150.000000pt" viewBox="0 0 150.000000 150.000000"
 preserveAspectRatio="xMidYMid meet">

<g transform="translate(0.000000,150.000000) scale(0.100000,-0.100000)"
fill="#000000" stroke="none">
<path d="M641 1323 c-46 -16 -136 -94 -129 -113 6 -19 23 -7 21 15 -1 16 -1
16 3 2 3 -9 10 -15 15 -11 6 3 5 12 -3 22 -11 15 -11 15 3 5 19 -15 33 -5 18
13 -7 8 -7 14 1 19 6 4 9 2 8 -3 -2 -6 2 -9 7 -9 6 1 9 8 7 17 -2 13 -2 13 7
0 10 -15 12 -13 15 13 0 6 6 12 11 12 6 0 16 4 23 8 7 5 11 4 10 -1 -2 -6 2
-10 7 -11 6 -1 10 5 10 11 0 9 22 13 70 13 49 0 70 -4 70 -12 0 -7 5 -12 10
-10 6 1 9 6 7 10 -1 5 3 5 10 0 7 -4 18 -8 23 -8 6 0 10 -6 10 -12 0 -7 5 -12
10 -10 6 1 9 5 8 10 -5 13 3 7 47 -39 25 -25 41 -44 35 -42 -5 2 -10 -2 -10
-7 0 -5 3 -9 7 -8 5 2 7 -3 5 -10 -1 -6 4 -11 11 -9 8 1 11 -2 8 -7 -4 -5 -2
-13 4 -16 8 -5 7 -11 -1 -21 -10 -13 -6 -18 14 -15 4 0 7 -6 7 -14 0 -8 -4
-14 -9 -12 -5 1 -8 -2 -8 -8 1 -5 5 -9 8 -8 3 1 6 -4 6 -12 0 -8 -3 -13 -6
-12 -3 1 -6 -2 -6 -8 0 -5 3 -9 8 -7 4 1 7 -5 7 -13 0 -8 -3 -14 -7 -13 -5 2
-8 -1 -8 -7 0 -5 4 -9 9 -7 5 2 3 -5 -5 -14 -8 -9 -13 -20 -11 -23 1 -3 -2 -7
-8 -7 -5 -1 -13 -2 -16 -3 -4 0 0 -9 7 -18 13 -16 12 -17 -3 -5 -11 9 -18 10
-23 2 -6 -9 1 -14 18 -11 4 0 7 -3 7 -9 0 -14 -16 -12 -29 4 -9 10 -8 16 4 26
8 7 13 15 10 19 -2 4 2 19 9 32 7 14 12 33 10 42 -1 9 2 19 7 23 5 3 6 11 2
17 -4 7 -8 19 -8 27 0 8 -4 21 -8 28 -5 7 -4 11 1 10 6 -2 10 2 11 7 1 6 -2
10 -6 10 -15 0 -33 16 -29 24 6 9 -78 94 -90 92 -5 -1 -10 4 -10 9 -3 23 -5
24 -13 11 -7 -12 -13 -12 -24 -3 -7 7 -17 8 -21 4 -4 -4 -6 -2 -4 3 2 6 -1 10
-7 10 -5 0 -9 -4 -7 -8 1 -5 -3 -5 -10 0 -18 11 -31 11 -46 -1 -9 -6 -12 -6
-10 1 2 6 -1 11 -7 11 -5 0 -9 -4 -7 -10 1 -5 -2 -7 -8 -3 -5 3 -10 2 -10 -3
0 -6 -7 -12 -15 -16 -8 -3 -14 -2 -12 2 1 4 -2 8 -8 10 -5 1 -10 -4 -10 -10
-1 -7 -7 -12 -14 -10 -7 1 -10 -2 -5 -9 5 -8 3 -9 -6 -4 -9 5 -11 4 -6 -4 5
-7 2 -10 -6 -9 -7 2 -12 -3 -10 -10 1 -6 -4 -11 -10 -10 -7 2 -12 -3 -10 -10
1 -8 -2 -11 -9 -6 -8 5 -9 3 -4 -6 5 -9 4 -11 -4 -6 -7 5 -10 2 -9 -5 2 -7 -3
-13 -9 -14 -7 0 -12 -4 -10 -10 1 -5 6 -9 12 -7 5 2 2 -5 -8 -16 -9 -10 -14
-22 -10 -26 5 -4 3 -6 -2 -4 -6 2 -10 -1 -10 -7 0 -5 3 -9 6 -8 3 1 6 -4 6
-12 0 -8 -3 -13 -6 -12 -3 1 -6 -2 -6 -8 0 -5 3 -9 6 -8 3 1 6 -4 6 -12 0 -8
-3 -13 -6 -12 -3 1 -6 -2 -6 -8 0 -5 4 -9 8 -7 5 1 6 -2 3 -7 -4 -5 -2 -13 4
-16 8 -5 7 -11 -1 -21 -6 -8 -9 -15 -5 -15 3 -1 12 -2 19 -3 6 -1 11 -8 9 -15
-1 -7 2 -10 8 -6 5 3 10 -1 10 -9 0 -9 -6 -15 -12 -14 -7 2 -12 -3 -10 -10 1
-8 -2 -11 -8 -7 -8 5 -8 11 0 20 8 9 8 15 0 20 -5 3 -10 1 -10 -6 0 -16 -11
-5 -14 13 -1 7 -5 19 -10 26 -4 7 -4 11 1 10 4 -2 9 2 11 7 1 6 -4 10 -10 10
-21 0 -16 150 6 174 11 12 14 21 7 26 -20 12 -36 -49 -36 -135 0 -68 5 -93 22
-126 31 -59 90 -112 151 -134 55 -21 162 -27 162 -10 0 5 6 7 14 4 15 -6 66
17 105 48 32 25 72 79 65 89 -3 5 -1 9 4 9 29 0 43 146 20 211 -18 53 -66 117
-109 146 -22 14 -42 23 -45 20 -4 -3 -13 0 -20 8 -19 19 -146 17 -203 -2z
m125 -36 c4 -4 16 -7 26 -7 26 0 77 -27 111 -59 45 -41 67 -93 67 -156 0 -130
-77 -212 -211 -224 -38 -4 -69 -3 -69 1 0 4 -6 8 -13 8 -26 0 -96 59 -121 103
-35 58 -36 148 -4 210 12 23 21 45 20 50 -1 4 4 6 10 5 7 -2 12 3 10 10 -1 6
1 11 5 10 5 -1 27 8 50 20 23 12 51 22 63 22 11 0 20 4 20 9 0 10 26 9 36 -2z
m172 -379 c-2 -7 3 -12 10 -10 21 4 14 -9 -25 -44 -28 -26 -40 -31 -50 -23
-12 11 -17 5 -14 -14 1 -5 -3 -6 -8 -3 -5 4 -11 0 -14 -6 -3 -10 -7 -10 -20 1
-15 12 -21 9 -19 -10 1 -3 -5 -6 -13 -6 -8 0 -13 3 -12 6 1 3 -2 6 -8 6 -5 0
-9 -3 -8 -6 1 -3 -4 -6 -12 -6 -8 0 -13 3 -12 6 1 3 -2 6 -8 6 -5 0 -9 -3 -8
-7 2 -5 -27 -3 -34 2 -2 2 -7 4 -13 5 -5 1 -12 4 -15 5 -7 3 -22 7 -35 9 -6 0
-10 7 -8 14 2 7 -1 12 -7 12 -5 0 -9 -4 -7 -10 2 -5 -10 3 -27 20 -28 26 -30
31 -16 44 13 13 17 11 40 -15 14 -16 29 -29 34 -29 12 0 26 -14 26 -26 0 -5 4
-8 10 -6 5 1 9 6 7 11 -2 5 2 5 10 0 15 -11 108 -11 126 0 7 4 11 3 10 -2 -2
-6 2 -10 7 -11 6 -1 10 5 10 12 1 6 6 11 11 10 6 -1 28 16 49 38 43 43 46 45
43 27z"/>
<path d="M556 892 c-3 -5 3 -17 13 -26 11 -10 22 -13 25 -8 3 5 -3 17 -13 26
-11 10 -22 13 -25 8z"/>
<path d="M896 871 c-15 -16 -23 -31 -18 -35 5 -3 21 8 36 23 15 16 23 31 18
35 -5 3 -21 -8 -36 -23z"/>
<path d="M626 841 c-4 -5 -2 -12 3 -15 5 -4 12 -2 15 3 4 5 2 12 -3 15 -5 4
-12 2 -15 -3z"/>
<path d="M686 808 c3 -5 10 -6 15 -3 13 9 11 12 -6 12 -8 0 -12 -4 -9 -9z"/>
<path d="M896 1272 c-3 -5 8 -21 23 -36 16 -15 31 -23 35 -18 3 5 -8 21 -23
36 -16 15 -31 23 -35 18z"/>
<path d="M497 1139 c-4 -16 -3 -18 9 -8 7 6 11 15 8 20 -8 13 -11 11 -17 -12z"/>
<path d="M978 982 c-3 -11 0 -19 7 -19 7 0 12 6 11 13 -3 23 -13 26 -18 6z"/>
<path d="M500 761 c0 -6 0 -13 0 -16 0 -3 3 -4 8 -2 4 1 6 5 5 9 -2 4 4 5 12
2 8 -4 15 -10 15 -16 0 -5 4 -7 9 -4 5 3 13 0 19 -7 10 -11 12 -18 12 -34 0
-4 5 -2 11 4 12 12 64 -9 64 -27 0 -5 5 -9 10 -7 6 1 9 5 8 9 -2 4 8 3 22 -2
14 -5 25 -7 25 -4 0 4 6 1 13 -5 8 -6 16 -9 19 -6 2 3 5 -1 5 -8 0 -8 -6 -14
-13 -14 -7 0 -12 3 -11 6 1 3 -2 6 -8 6 -5 0 -9 -3 -8 -6 1 -3 -4 -6 -12 -6
-8 0 -13 3 -12 6 1 3 -2 6 -8 6 -5 0 -9 -4 -7 -8 1 -5 -3 -5 -10 0 -7 4 -17 8
-23 8 -5 0 -10 6 -10 13 0 6 -4 11 -10 10 -5 -2 -9 -7 -7 -13 2 -5 -5 -2 -16
8 -10 9 -22 14 -27 10 -4 -5 -5 -2 -1 5 5 8 3 11 -5 10 -7 -2 -14 3 -15 10 -3
26 -5 27 -15 12 -8 -13 -9 -13 -7 2 2 9 -1 17 -7 16 -5 0 -9 -5 -7 -11 2 -6
-6 -3 -17 7 -19 17 -26 15 -22 -7 1 -5 -3 -6 -8 -3 -5 4 -13 2 -16 -4 -5 -8
-11 -7 -21 1 -14 11 -15 10 -18 -13 0 -7 -8 -13 -16 -13 -8 -1 -13 -7 -12 -15
2 -8 0 -12 -4 -7 -4 4 -9 18 -11 30 -2 17 -1 19 7 7 9 -14 11 -13 14 10 0 6 6
10 11 11 6 0 18 7 27 16 10 8 24 13 32 10 9 -4 18 -2 21 3 9 15 -41 12 -57 -2
-7 -7 -20 -14 -28 -16 -23 -5 -59 -43 -85 -87 -34 -58 -55 -153 -57 -253 -2
-105 20 -162 79 -202 l36 -25 351 -3 c193 -2 366 0 384 3 34 6 95 53 113 87 7
14 7 23 -1 34 -13 15 -34 9 -24 -7 3 -5 10 -7 15 -4 5 4 9 1 9 -4 0 -6 -5 -11
-11 -11 -5 0 -7 -5 -4 -10 4 -6 1 -9 -7 -8 -7 2 -12 -3 -11 -9 2 -7 -3 -12
-10 -10 -6 1 -11 -4 -9 -11 1 -8 -2 -11 -9 -6 -8 5 -9 3 -4 -6 5 -8 4 -11 -3
-6 -6 3 -14 2 -17 -4 -5 -8 -11 -7 -21 1 -12 10 -18 6 -16 -12 1 -3 -5 -6 -13
-6 -8 0 -13 4 -12 8 1 4 -2 6 -8 6 -5 -1 -9 -5 -8 -8 1 -3 -4 -6 -11 -6 -7 0
-13 6 -13 14 0 7 3 11 5 8 3 -3 11 0 18 6 8 6 20 9 28 6 8 -3 20 1 27 9 8 10
15 11 24 4 15 -13 25 -3 18 18 -4 15 -3 15 6 2 11 -15 14 -10 13 25 -1 17 0
17 4 2 3 -9 10 -15 15 -11 6 4 6 11 -1 19 -8 9 -8 15 0 20 6 3 8 11 4 16 -3 5
-2 8 3 7 4 -2 9 0 11 5 1 4 0 7 -3 7 -3 0 -9 0 -15 0 -5 0 -10 -9 -10 -19 0
-30 -52 -78 -98 -90 -26 -7 -151 -11 -344 -11 -272 1 -308 3 -344 19 -23 11
-49 29 -58 42 -9 13 -16 18 -16 11 0 -6 -3 -11 -7 -10 -5 2 -9 0 -10 -4 -6
-18 -2 -20 15 -7 15 12 16 12 5 -2 -17 -21 -5 -33 16 -16 14 10 14 10 3 -5 -9
-11 -10 -18 -2 -23 10 -6 14 1 10 20 -1 5 8 1 19 -9 12 -11 21 -16 21 -11 0 4
7 2 15 -5 8 -7 15 -9 15 -5 0 4 6 2 13 -4 8 -6 16 -9 19 -6 2 3 5 -1 5 -8 0
-8 -6 -14 -13 -14 -7 0 -12 4 -11 8 1 4 -2 7 -8 7 -5 0 -9 -3 -8 -7 1 -4 -4
-8 -12 -8 -8 0 -12 4 -10 8 3 4 -3 5 -13 2 -26 -6 -105 76 -90 94 9 12 5 17
-13 15 -3 -1 -6 5 -6 13 0 8 4 13 8 12 4 -1 7 3 7 8 0 6 -4 9 -10 7 -5 -1 -7
2 -4 7 4 5 2 13 -4 16 -8 5 -8 11 -1 19 6 7 9 15 6 18 -3 2 1 5 8 5 8 0 14 -6
14 -13 0 -7 -3 -12 -6 -11 -3 1 -7 -2 -7 -8 -1 -5 2 -9 8 -7 5 1 7 -2 4 -7 -4
-5 -2 -12 3 -16 5 -3 8 -15 6 -27 -3 -11 -2 -18 2 -15 3 4 7 46 9 94 5 166 49
266 133 306 l48 24 39 -28 c63 -45 136 -69 213 -69 78 0 125 14 197 59 46 28
54 30 89 20 81 -23 136 -127 151 -286 3 -40 9 -71 13 -68 7 4 7 60 1 60 -1 0
-4 17 -5 37 -1 20 0 36 4 35 3 -1 7 3 9 8 1 6 -3 10 -10 10 -14 0 -20 33 -7
41 14 8 0 26 -14 18 -7 -4 -9 -3 -4 1 4 5 0 16 -9 26 -9 10 -14 25 -10 34 4
11 2 14 -6 9 -7 -5 -8 -3 -3 6 6 9 4 11 -5 5 -8 -5 -11 -4 -7 2 4 5 -7 23 -23
38 -17 16 -30 25 -30 21 0 -5 -7 -3 -15 4 -8 6 -13 16 -12 20 1 4 -2 8 -8 8
-5 0 -9 -4 -8 -8 3 -10 -23 -7 -33 3 -4 4 -18 -3 -32 -15 -13 -13 -22 -18 -20
-12 2 7 -1 12 -7 12 -5 1 -9 -7 -7 -16 2 -10 -1 -13 -5 -7 -14 18 -32 15 -28
-4 2 -12 -3 -21 -15 -24 -11 -3 -18 -2 -17 2 1 3 -3 7 -8 9 -5 1 -10 -4 -10
-10 0 -7 -4 -13 -10 -13 -5 0 -16 -4 -23 -8 -7 -5 -11 -5 -10 0 2 4 -1 8 -7 8
-5 0 -9 -3 -8 -6 1 -3 -4 -6 -11 -6 -20 0 -13 30 7 33 9 1 19 -2 23 -7 8 -14
26 0 18 14 -4 7 -3 9 1 4 5 -4 17 1 27 10 11 10 18 13 16 8 -2 -6 2 -11 7 -12
6 -1 9 5 7 14 -3 11 1 14 13 9 10 -4 14 -2 9 6 -5 7 -3 8 6 3 9 -6 11 -4 5 5
-5 8 -4 11 2 7 6 -4 16 0 23 8 10 12 16 13 26 4 13 -11 19 -5 15 15 -1 5 4 5
11 -1 7 -6 21 -9 30 -8 10 2 20 -1 24 -6 3 -5 10 -7 15 -3 5 3 8 0 7 -8 -2 -7
3 -12 10 -10 6 1 11 -2 10 -7 -2 -5 2 -9 7 -9 6 0 9 4 7 10 -1 5 2 7 8 3 8 -5
8 -11 1 -19 -14 -17 -2 -29 15 -15 8 7 14 7 19 -1 4 -6 2 -9 -3 -8 -6 2 -9 -1
-8 -7 0 -5 4 -9 9 -7 4 1 6 -3 5 -10 -2 -7 4 -12 12 -13 8 0 15 -4 15 -10 0
-5 4 -16 8 -23 5 -7 5 -11 0 -10 -4 2 -9 -1 -10 -7 -2 -5 3 -10 10 -10 6 0 12
-4 12 -10 0 -5 4 -16 8 -23 5 -7 5 -11 0 -10 -4 2 -8 -1 -8 -7 0 -5 3 -9 8 -7
4 1 6 -1 6 -5 -1 -5 0 -10 1 -13 7 -15 5 -102 -2 -106 -5 -3 -6 -10 -2 -15 3
-5 9 -7 13 -5 4 3 8 -1 8 -9 0 -8 -4 -12 -8 -9 -4 2 -10 0 -13 -5 -4 -5 -2
-12 3 -16 5 -3 8 -14 6 -25 -2 -11 1 -20 6 -20 6 0 9 10 8 23 -1 12 1 30 5 39
4 9 5 22 1 27 -3 6 -8 41 -10 78 -4 89 -28 162 -68 215 -36 47 -101 89 -132
86 -11 -1 -26 1 -34 6 -8 5 -16 3 -22 -5 -5 -8 -9 -10 -9 -6 0 4 -28 -8 -62
-27 -123 -68 -201 -68 -312 -1 -66 39 -96 51 -96 36z m-131 -116 c-6 -5 -14
-10 -19 -10 -6 0 -10 -4 -9 -10 1 -5 5 -9 10 -8 5 2 0 -13 -11 -32 -11 -19
-20 -37 -20 -40 0 -3 0 -12 0 -20 0 -8 -3 -14 -7 -13 -5 2 -8 -1 -8 -7 0 -5 4
-9 9 -7 5 2 5 -3 -1 -10 -6 -7 -9 -21 -8 -30 2 -10 -1 -20 -6 -24 -5 -3 -7 -9
-5 -13 3 -4 -1 -8 -8 -8 -8 0 -13 13 -13 33 0 18 3 32 6 31 3 -1 7 3 8 8 0 6
-3 9 -9 7 -5 -1 -6 3 -1 10 4 7 8 18 8 23 0 6 6 10 13 10 6 0 11 5 10 10 -2 6
-6 9 -10 8 -5 -2 -4 16 1 35 1 1 1 5 2 10 0 4 8 15 17 26 9 10 15 19 13 20 -2
0 2 11 9 23 13 20 15 20 26 5 8 -11 9 -20 3 -27z m128 -460 c0 -6 -6 -12 -12
-12 -6 0 -12 6 -12 12 0 6 6 12 12 12 6 0 12 -6 12 -12z m40 0 c0 -6 -6 -12
-12 -12 -6 0 -12 6 -12 12 0 6 6 12 12 12 6 0 12 -6 12 -12z m40 0 c0 -6 -6
-12 -12 -12 -6 0 -12 6 -12 12 0 6 6 12 12 12 6 0 12 -6 12 -12z m40 0 c0 -6
-6 -12 -12 -12 -6 0 -12 6 -12 12 0 6 6 12 12 12 6 0 12 -6 12 -12z m40 0 c0
-6 -6 -12 -12 -12 -6 0 -12 6 -12 12 0 6 6 12 12 12 6 0 12 -6 12 -12z m40 0
c0 -6 -6 -12 -12 -12 -6 0 -12 6 -12 12 0 6 6 12 12 12 6 0 12 -6 12 -12z m40
0 c0 -6 -6 -12 -12 -12 -6 0 -12 6 -12 12 0 6 6 12 12 12 6 0 12 -6 12 -12z
m40 0 c0 -6 -6 -12 -12 -12 -6 0 -12 6 -12 12 0 6 6 12 12 12 6 0 12 -6 12
-12z m40 0 c0 -6 -6 -12 -12 -12 -6 0 -12 6 -12 12 0 6 6 12 12 12 6 0 12 -6
12 -12z m40 0 c0 -6 -6 -12 -12 -12 -6 0 -12 6 -12 12 0 6 6 12 12 12 6 0 12
-6 12 -12z m40 0 c0 -6 -6 -12 -12 -12 -6 0 -12 6 -12 12 0 6 6 12 12 12 6 0
12 -6 12 -12z m40 0 c0 -6 -6 -12 -12 -12 -6 0 -12 6 -12 12 0 6 6 12 12 12 6
0 12 -6 12 -12z m40 0 c0 -6 -6 -12 -12 -12 -6 0 -12 6 -12 12 0 6 6 12 12 12
6 0 12 -6 12 -12z m40 0 c0 -6 -6 -12 -12 -12 -6 0 -12 6 -12 12 0 6 6 12 12
12 6 0 12 -6 12 -12z"/>
<path d="M341 656 c-10 -11 -9 -14 1 -12 14 2 23 15 15 22 -2 2 -10 -2 -16
-10z"/>
<path d="M319 616 c-1 -3 -2 -9 -3 -13 -1 -5 -5 -13 -9 -20 -4 -6 -3 -14 3
-18 5 -3 11 -4 11 -1 1 3 2 9 3 14 1 4 5 12 9 19 4 6 3 14 -3 18 -5 3 -11 4
-11 1z"/>
<path d="M287 463 c-4 -3 -7 -13 -7 -21 0 -18 13 -7 16 13 2 17 1 18 -9 8z"/>
<path d="M434 729 c-8 -14 14 -19 25 -6 8 10 7 14 -5 14 -8 0 -17 -4 -20 -8z"/>
<path d="M956 731 c-4 -5 -2 -12 3 -15 5 -4 12 -2 15 3 4 5 2 12 -3 15 -5 4
-12 2 -15 -3z"/>
<path d="M1006 728 c3 -5 10 -6 15 -3 13 9 11 12 -6 12 -8 0 -12 -4 -9 -9z"/>
<path d="M596 691 c-4 -5 -2 -12 3 -15 5 -4 12 -2 15 3 4 5 2 12 -3 15 -5 4
-12 2 -15 -3z"/>
<path d="M1167 623 c-4 -3 -7 -13 -7 -21 0 -18 13 -7 16 13 2 17 1 18 -9 8z"/>
<path d="M1205 458 c-5 -14 -2 -45 6 -52 3 -3 5 10 5 29 0 37 -4 43 -11 23z"/>
<path d="M355 210 c-7 -12 -8 -11 28 -14 15 -2 25 0 21 3 -3 3 -9 6 -12 6 -4
0 -12 4 -19 8 -6 4 -14 3 -18 -3z"/>
<path d="M1116 211 c-4 -5 -2 -12 3 -15 5 -4 12 -2 15 3 4 5 2 12 -3 15 -5 4
-12 2 -15 -3z"/>
</g>
</svg>
